<?xml version="1.0" encoding="UTF-8"?><svg xmlns="http://www.w3.org/2000/svg" xmlns:xlink="http://www.w3.org/1999/xlink" height="1255.9" preserveAspectRatio="xMidYMid meet" version="1.0" viewBox="213.0 584.2 2029.6 1255.9" width="2029.6" zoomAndPan="magnify"><g fill="#040606" id="change1_1"><path d="M 1433.542969 1740.109375 C 1600.789062 1661.988281 1712.453125 1513.457031 1750.292969 1346.335938 C 1632.464844 1418.597656 1496.984375 1491.675781 1349.648438 1560.476562 C 1202.300781 1629.308594 1059.34375 1686.296875 928.296875 1730.289062 C 1080.726562 1808.519531 1266.277344 1818.25 1433.542969 1740.109375"/><path d="M 1655.640625 858.578125 C 1660.769531 865.195312 1665.765625 871.953125 1670.664062 878.816406 C 1868.183594 829.894531 2008.433594 829.660156 2036.402344 889.589844 C 2066.105469 953.164062 1962.964844 1070.066406 1779.363281 1198.890625 C 1653.671875 1287.101562 1490.242188 1380.890625 1305.960938 1466.980469 C 1121.667969 1553.050781 944.882812 1618.179688 796.558594 1657.949219 C 579.941406 1716.0625 424.082031 1720.132812 394.382812 1656.570312 C 366.367188 1596.621094 456.554688 1489.230469 620.855469 1369.171875 C 618.71875 1361.011719 616.753906 1352.851562 614.976562 1344.660156 C 360.914062 1513.039062 212.953125 1669.738281 251.242188 1751.710938 C 292.554688 1840.140625 539.535156 1818.261719 867.144531 1712.242188 C 1010.738281 1665.761719 1169.726562 1603.210938 1333.789062 1526.582031 C 1497.878906 1449.941406 1647.894531 1368.152344 1775.675781 1287.871094 C 2067.261719 1104.679688 2242.539062 929.320312 2201.265625 840.898438 C 2162.960938 758.929688 1947.855469 771.808594 1655.640625 858.578125"/><path d="M 1684.144531 926.785156 C 1679.398438 918.761719 1674.457031 910.921875 1669.355469 903.21875 C 1665.839844 897.863281 1662.160156 892.671875 1658.480469 887.492188 C 1653.710938 880.777344 1648.863281 874.207031 1643.855469 867.753906 C 1483.113281 660.558594 1195.234375 584.210938 947.65625 699.847656 C 700.066406 815.5 573.851562 1085.253906 629.570312 1341.5 C 631.320312 1349.46875 633.25 1357.429688 635.332031 1365.378906 C 636.960938 1371.53125 638.558594 1377.679688 640.398438 1383.820312 C 643.050781 1392.667969 645.886719 1401.488281 648.988281 1410.28125 C 655.230469 1427.988281 662.351562 1445.5625 670.460938 1462.917969 C 680.621094 1484.628906 692.082031 1505.269531 704.503906 1525.050781 C 836.933594 1509.691406 1036.820312 1446.730469 1250 1347.148438 C 1463.179688 1247.566406 1639.75 1134.691406 1736.535156 1042.996094 C 1729.335938 1020.792969 1720.855469 998.753906 1710.734375 977.042969 C 1702.621094 959.679688 1693.726562 942.921875 1684.144531 926.785156"/><path d="M 1681.859375 894.953125 C 1687.066406 902.859375 1692.140625 910.914062 1696.984375 919.125 C 1765.582031 914.351562 1811.449219 924.960938 1824.601562 953.144531 C 1838.3125 982.480469 1814.523438 1026.84375 1762.542969 1079.101562 C 1670.632812 1171.449219 1490.234375 1288.488281 1270.539062 1391.097656 C 1050.84375 1493.707031 845.289062 1556.957031 715.480469 1568.15625 C 642.058594 1574.507812 592.785156 1564.246094 579.070312 1534.898438 C 565.921875 1506.738281 587.210938 1464.746094 634.882812 1415.238281 C 631.714844 1406.21875 628.792969 1397.15625 626.078125 1388.085938 C 509.925781 1480.726562 449.261719 1561.605469 471.511719 1609.238281 C 495 1659.519531 606.265625 1662.726562 765.167969 1627.328125 C 911.082031 1594.828125 1097.125 1529.789062 1292.664062 1438.464844 C 1488.1875 1347.136719 1657.453125 1246.195312 1776.011719 1155.160156 C 1905.164062 1056.03125 1974.125 968.660156 1950.628906 918.363281 C 1928.382812 870.730469 1827.421875 865.339844 1681.859375 894.953125"/></g></svg>