<?xml version="1.0" encoding="UTF-8"?><!DOCTYPE svg PUBLIC "-//W3C//DTD SVG 1.0//EN" "http://www.w3.org/TR/2001/REC-SVG-20010904/DTD/svg10.dtd" []><svg xmlns="http://www.w3.org/2000/svg" xmlns:xlink="http://www.w3.org/1999/xlink" data-name="Layer 1" height="154" preserveAspectRatio="xMidYMid meet" version="1.0" viewBox="0.0 -0.1 632.4 154.4" width="632" zoomAndPan="magnify"><g id="change1_1"><path d="M623.45,144.45c1.57.02,2.85-1.24,2.86-2.81,0-.06,0-.13,0-.19,0-2.13-1.28-3.14-3.92-3.14h-4.26v11.14h1.6v-4.86h1.97l.05.06,3.05,4.8h1.71l-3.28-4.96.22-.03ZM621.6,143.34h-1.86v-3.77h2.35c1.22,0,2.6.2,2.6,1.79,0,1.83-1.4,1.98-3.11,1.98" data-name="Path 2525" fill="#fff"/></g><g id="change1_2"><path d="M0,22.66h23.62v86.04h43.73v21.8H0V22.66Z" data-name="Path 2514" fill="#fff"/></g><g id="change1_3"><path d="M77.8,57.39h22.69v73.08h-22.69V57.39ZM89.14,21.05c7.27,0,13.16,5.9,13.16,13.17s-5.9,13.16-13.17,13.16c-7.27,0-13.16-5.89-13.16-13.16s5.89-13.16,13.16-13.16h0" data-name="Path 2515" fill="#fff"/></g><g id="change1_4"><path d="M195.42,22.65h22.69v64.45l25.72-29.74h27.82l-29.78,33.83,29.16,39.31h-28.52l-24.09-36.12h-.3v36.12h-22.69V22.65Z" data-name="Path 2516" fill="#fff"/></g><g id="change1_5"><path d="M113.07,57.39h21.79v9.99h.31c4.44-7.6,12.7-12.14,21.49-11.81,23.01,0,27.25,15.14,27.25,34.81v40.08h-22.69v-35.53c0-8.48-.16-19.38-11.82-19.38s-13.62,9.24-13.62,18.77v36.14h-22.69l-.02-73.06Z" data-name="Path 2517" fill="#fff"/></g><g id="change1_6"><path d="M319.44,85.43c.18-7.51-5.77-13.75-13.28-13.92-.22,0-.43,0-.65,0-8.25-.51-15.39,5.68-16.04,13.92h29.97ZM338.66,117.81c-7.64,9.26-19.03,14.6-31.03,14.54-22.69,0-40.86-15.15-40.86-38.6s18.17-38.6,40.86-38.6c21.21,0,34.51,15.13,34.51,38.6v7.12h-52.67c1.36,8.34,8.65,14.41,17.1,14.23,6.56-.04,12.66-3.4,16.19-8.93l15.89,11.65Z" data-name="Path 2518" fill="#fff"/></g><g id="change1_7"><path d="M389.44,75.05c-11.35,0-18.15,7.58-18.15,18.62s6.81,18.62,18.15,18.62,18.17-7.56,18.17-18.62-6.81-18.62-18.17-18.62M428.5,130.45h-20.89v-9.69h-.31c-5.31,7.15-13.66,11.4-22.56,11.51-21.8,0-36.17-15.74-36.17-37.99,0-20.44,12.71-39.2,33.6-39.2,9.39,0,18.16,2.57,23.31,9.69h.3V22.64h22.71v107.81Z" data-name="Path 2519" fill="#fff"/></g><g id="change1_8"><path d="M581.7,130.49h-22.69v-35.54c0-8.47-.15-19.38-11.8-19.38s-13.63,9.23-13.63,18.77v36.15h-22.69V57.41h21.79v9.99h.31c4.44-7.6,12.7-12.13,21.49-11.81,23,0,27.24,15.13,27.24,34.81v40.09ZM485.28,47.42c-7.27,0-13.17-5.89-13.17-13.17,0-7.27,5.89-13.17,13.17-13.17,7.27,0,13.17,5.89,13.17,13.17s-5.89,13.17-13.17,13.17h0M496.63,130.49h-22.72V57.41h22.72v73.08ZM593.02.01h-130.51c-6.17-.07-11.23,4.87-11.3,11.04v131.05c.07,6.17,5.13,11.12,11.3,11.05h130.51c6.18.08,11.26-4.87,11.35-11.05V11.04c-.09-6.18-5.17-11.12-11.35-11.04" data-name="Path 2520" fill="#fff"/></g><g id="change1_9"><path d="M621.79,133.35c-5.77.06-10.4,4.78-10.34,10.54.06,5.77,4.78,10.4,10.54,10.34,5.77-.06,10.4-4.78,10.34-10.54-.05-5.69-4.65-10.29-10.34-10.34h-.2M621.79,153.04c-5.06.08-9.22-3.95-9.31-9s3.95-9.22,9-9.31c5.06-.08,9.22,3.95,9.31,9v.15c.11,4.95-3.82,9.04-8.77,9.15h-.24" data-name="Path 2526" fill="#fff"/></g></svg>