<?xml version="1.0" encoding="UTF-8"?><svg xmlns="http://www.w3.org/2000/svg" xmlns:xlink="http://www.w3.org/1999/xlink" height="1318.7" preserveAspectRatio="xMidYMid meet" version="1.0" viewBox="326.5 339.6 1347.0 1318.7" width="1347.0" zoomAndPan="magnify"><g fill="#100f0d" id="change1_1"><path d="M 1655.921875 865.878906 C 1661.878906 866.53125 1665.160156 870.808594 1663.171875 875.96875 C 1661.78125 879.429688 1658.328125 882.25 1654.25 883.828125 C 1654.140625 885.53125 1653.871094 887.410156 1653.328125 889.21875 C 1648.710938 904.828125 1628.980469 917.671875 1609.398438 917.609375 C 1603.21875 917.550781 1597.949219 916.199219 1593.589844 913.910156 C 1593.429688 914.089844 1593.21875 914.269531 1593.058594 914.5 C 1591.070312 918.140625 1586.820312 920.949219 1582.191406 921.890625 C 1579.78125 922.890625 1577.300781 923.769531 1574.671875 924.179688 C 1570.421875 924.941406 1566.550781 924.648438 1563.210938 923.769531 C 1561.390625 929.921875 1555.148438 935.550781 1547.398438 938.078125 C 1548.589844 939.359375 1549.449219 940.890625 1549.339844 942.769531 C 1549.128906 947.988281 1543.320312 953.148438 1536.328125 954.261719 C 1530.199219 955.140625 1525.46875 952.5 1524.550781 948.28125 C 1521.648438 950.328125 1518.148438 951.800781 1514.339844 952.328125 C 1506.910156 953.441406 1500.890625 950.511719 1498.960938 945.820312 C 1490.078125 954.148438 1476.371094 959.421875 1462.929688 958.421875 C 1461.101562 958.308594 1459.378906 957.960938 1457.710938 957.609375 C 1452.769531 961.421875 1446.480469 964.289062 1439.539062 965.339844 C 1432.28125 966.519531 1425.609375 965.578125 1420.398438 963.171875 C 1420.238281 963.230469 1420.128906 963.351562 1419.96875 963.410156 C 1396.46875 987.859375 1356.621094 1002.53125 1317.960938 997.601562 C 1301.351562 995.488281 1287.371094 989.921875 1276.070312 982.289062 C 1275.589844 982.761719 1275.050781 983.171875 1274.511719 983.640625 C 1269.300781 991.730469 1259.300781 997.421875 1248.109375 998.949219 C 1246.878906 999.121094 1245.691406 999.238281 1244.460938 999.300781 C 1238.921875 1000.769531 1233.21875 1001.878906 1227.300781 1002.289062 C 1226.230469 1002.410156 1225.101562 1002.46875 1223.96875 1002.46875 C 1212.621094 1002.640625 1202.300781 1000.359375 1193.429688 996.601562 C 1190.578125 1004.28125 1184.769531 1011.199219 1177.078125 1016.601562 C 1172.191406 1020.058594 1166.488281 1022.929688 1160.300781 1024.929688 L 1160.25 1024.929688 C 1156.648438 1026.160156 1152.828125 1027.101562 1148.851562 1027.679688 C 1151.75 1031.609375 1153.691406 1035.949219 1153.101562 1040.941406 C 1151.589844 1054.78125 1134.921875 1065.859375 1116 1065.269531 C 1099.269531 1064.800781 1087.171875 1055.25 1085.671875 1043.578125 C 1077.5 1047.449219 1067.820312 1049.621094 1057.488281 1049.03125 C 1054.859375 1048.851562 1052.328125 1048.558594 1049.859375 1048.089844 C 1042.761719 1046.738281 1036.519531 1044.101562 1031.359375 1040.578125 C 1031.25 1040.519531 1031.140625 1040.46875 1031.089844 1040.410156 C 1024.53125 1035.890625 1019.851562 1029.96875 1017.859375 1023.339844 C 1016.410156 1024.28125 1014.960938 1025.21875 1013.449219 1026.039062 C 988.074219 1041.050781 952.476562 1045.570312 918.867188 1034.949219 C 914.03125 1033.488281 909.675781 1031.5 905.265625 1029.5 C 891.015625 1036.25 873.539062 1039.710938 854.773438 1037.828125 C 854.183594 1037.769531 853.644531 1037.710938 853.054688 1037.648438 C 847.40625 1036.949219 841.976562 1035.890625 836.761719 1034.429688 C 824.449219 1030.96875 813.53125 1025.398438 804.605469 1018.421875 C 801.914062 1019.589844 799.066406 1020.53125 796.054688 1021.121094 C 789.925781 1022.398438 783.203125 1022.519531 776.214844 1021.171875 L 776.054688 1021.171875 C 753.039062 1016.71875 736.960938 998.539062 740.027344 981.058594 C 740.132812 980.589844 740.292969 980.121094 740.457031 979.648438 C 740.5625 979.359375 740.671875 979.070312 740.777344 978.769531 C 740.078125 978.480469 739.433594 978.191406 738.789062 977.839844 C 720.667969 969.570312 704.429688 959.601562 690.503906 948.160156 C 681.898438 956.839844 666.789062 960.648438 650.710938 956.550781 C 628.074219 950.679688 612.695312 931.621094 616.246094 914.378906 C 616.351562 913.621094 616.726562 912.96875 616.941406 912.210938 C 615.8125 912.160156 614.578125 911.921875 613.394531 911.738281 C 609.84375 912.859375 606.136719 913.679688 602.210938 914.269531 C 602.261719 914.558594 602.371094 914.851562 602.371094 915.210938 C 602.695312 921.890625 596.027344 926.820312 587.53125 926.109375 C 583.660156 925.761719 580.054688 924.289062 577.3125 922.179688 C 572.097656 924.648438 565.484375 925.589844 558.332031 924.410156 C 551.394531 923.300781 545.214844 920.429688 540.265625 916.671875 C 538.597656 916.960938 536.933594 917.371094 535.101562 917.488281 C 521.769531 918.550781 508.269531 913.269531 499.453125 905 C 497.515625 909.75 491.492188 912.558594 484.183594 911.511719 C 480.417969 910.980469 476.921875 909.460938 474.019531 907.460938 C 473.15625 911.738281 468.480469 914.378906 462.351562 913.511719 C 455.46875 912.390625 449.660156 907.289062 449.445312 902.011719 C 449.390625 900.128906 450.199219 898.671875 451.378906 897.378906 C 443.691406 894.859375 437.5625 889.21875 435.785156 883.128906 C 432.453125 884.011719 428.582031 884.238281 424.386719 883.539062 C 421.804688 883.128906 419.332031 882.25 416.96875 881.25 C 412.289062 880.308594 408.148438 877.558594 406.214844 873.859375 C 405.996094 873.679688 405.835938 873.511719 405.675781 873.28125 C 401.320312 875.558594 396.101562 877.03125 389.972656 877.03125 C 370.5625 877.140625 351.042969 864.359375 346.472656 848.761719 C 345.933594 846.941406 345.613281 845.128906 345.558594 843.371094 C 341.527344 841.78125 338.085938 839.03125 336.742188 835.511719 C 334.75 830.351562 338.03125 826.128906 343.945312 825.480469 C 336.902344 819.96875 331.472656 812.988281 329.210938 805.539062 C 326.523438 796.328125 328.996094 788.300781 334.859375 782.609375 C 332.867188 779.96875 331.308594 777.21875 330.449219 774.230469 C 326.738281 761.5 336.363281 751.410156 351.796875 751.53125 C 354.914062 751.53125 357.980469 752.058594 360.988281 752.878906 C 360.722656 742.558594 369.539062 734.929688 382.875 734.820312 C 389.058594 734.761719 395.296875 736.398438 400.726562 739.101562 C 402.125 731.070312 409.492188 725.199219 420.140625 724.261719 C 420.785156 722.210938 421.859375 720.328125 423.527344 718.691406 C 430.679688 711.710938 444.875 711.890625 455.359375 719.039062 C 458.695312 721.328125 461.167969 724.078125 462.886719 726.960938 C 467.296875 724.320312 473.371094 723.910156 479.34375 725.441406 C 475.953125 719.101562 475.039062 712.421875 477.246094 706.609375 C 469.933594 697.460938 467.890625 686.671875 473.210938 678.578125 C 479.503906 669.019531 493.859375 666.378906 508.003906 670.839844 C 503.753906 665.378906 502.894531 658.871094 506.496094 654.300781 C 509.023438 651.070312 513.164062 649.429688 517.894531 649.261719 C 513.757812 643.101562 513.109375 636.179688 517.035156 631.078125 C 522.84375 623.511719 536.285156 622.980469 547.09375 629.671875 C 550.589844 631.839844 553.277344 634.480469 555.265625 637.351562 C 559.945312 633.660156 567.527344 633.128906 574.625 635.941406 C 574.464844 634.128906 574.679688 632.488281 575.753906 631.019531 C 578.710938 626.910156 585.753906 626.441406 591.507812 629.851562 C 593.550781 631.078125 594.949219 632.71875 596.027344 634.359375 C 597.476562 633.71875 599.035156 633.359375 600.757812 633.25 C 599.035156 628.609375 599.414062 623.75 602.210938 619.878906 C 604.199219 617.121094 607.210938 615.179688 610.707031 614.128906 C 601.617188 606.738281 596.027344 596.359375 596.886719 586.570312 C 597.046875 584.808594 597.425781 583.171875 598.015625 581.578125 C 594.789062 579.121094 592.53125 575.769531 592.53125 572.378906 C 592.53125 567.390625 597.15625 564.339844 602.960938 565.28125 C 598.285156 558.648438 595.648438 551.199219 596.238281 543.929688 C 596.941406 535.140625 602.101562 528.570312 609.632812 524.988281 C 608.714844 522.179688 608.179688 519.300781 608.445312 516.488281 C 609.414062 504.230469 621.941406 497.609375 636.460938 501.53125 C 639.363281 502.300781 642.054688 503.53125 644.636719 504.941406 C 647.96875 495.671875 658.886719 490.980469 671.46875 494.089844 C 677.273438 495.609375 682.542969 498.601562 686.738281 502.359375 C 690.824219 495.441406 699.75 491.921875 710.074219 493.671875 C 711.367188 491.921875 713.03125 490.511719 715.128906 489.449219 C 715.558594 489.21875 716.097656 489.101562 716.582031 488.929688 C 718.355469 477.78125 729.917969 471.328125 743.574219 474.269531 C 744.488281 474.441406 745.402344 474.789062 746.265625 475.078125 C 748.09375 473.210938 750.890625 472.210938 754.167969 472.511719 C 749.382812 466.230469 746.585938 458.898438 746.960938 451.628906 C 747.394531 442.828125 752.179688 435.851562 759.382812 431.75 C 758.308594 428.988281 757.769531 426.179688 757.933594 423.300781 C 758.46875 410.988281 770.40625 403.421875 784.601562 406.238281 C 787.453125 406.769531 790.085938 407.761719 792.613281 408.988281 C 795.570312 399.5 806.003906 393.921875 818.316406 396.148438 C 824.015625 397.148438 829.179688 399.730469 833.371094 403.191406 C 837.136719 395.980469 845.6875 391.75 855.742188 392.75 C 856.925781 390.988281 858.484375 389.410156 860.527344 388.121094 C 869.132812 382.839844 882.089844 385.480469 889.5625 393.921875 C 891.984375 396.621094 893.433594 399.609375 894.136719 402.601562 C 899.675781 400.609375 906.394531 401.609375 911.773438 405.058594 C 912.6875 404.238281 913.761719 403.480469 914.890625 402.960938 C 915.320312 402.601562 915.589844 402.078125 916.128906 401.78125 C 920.484375 398.96875 927.042969 400.019531 931.074219 404.070312 C 931.992188 400.140625 935.753906 397.261719 940.808594 397.558594 C 944.519531 397.730469 947.960938 399.550781 950.109375 402.128906 C 951.078125 401.25 952.101562 400.371094 953.230469 399.550781 C 952.101562 396.910156 951.402344 394.160156 951.402344 391.28125 C 951.402344 378.910156 962.800781 370.171875 976.890625 371.519531 C 979.738281 371.761719 982.429688 372.460938 984.953125 373.460938 C 987.375 363.660156 997.429688 357.101562 1009.640625 357.980469 C 1015.28125 358.441406 1020.550781 360.441406 1024.851562 363.488281 C 1028.191406 355.921875 1036.410156 350.820312 1046.359375 350.761719 C 1047.441406 348.878906 1048.890625 347.128906 1050.820312 345.660156 C 1059.109375 339.558594 1072.011719 340.789062 1079.808594 348.46875 C 1082.28125 350.941406 1083.839844 353.808594 1084.699219 356.679688 C 1090.019531 354.101562 1096.75 354.460938 1102.179688 357.328125 C 1103.039062 356.390625 1104.058594 355.628906 1105.191406 354.980469 C 1105.558594 354.519531 1105.828125 354.050781 1106.320312 353.628906 C 1110.460938 350.351562 1116.960938 350.820312 1121.160156 354.398438 C 1121.859375 350.351562 1125.511719 347.191406 1130.460938 346.890625 C 1136.378906 346.601562 1141.699219 350.53125 1142.398438 355.75 C 1142.671875 357.558594 1142.078125 359.261719 1141.210938 360.789062 C 1147.988281 361.730469 1153.738281 365.949219 1155.890625 371.640625 C 1158.640625 370.058594 1161.859375 368.878906 1165.519531 368.648438 C 1176.808594 367.890625 1187.140625 375.101562 1188.53125 384.949219 C 1189.230469 389.820312 1187.621094 394.511719 1184.339844 398.03125 C 1185.628906 398.96875 1186.808594 399.960938 1187.671875 401.25 C 1189.230469 400.199219 1191.011719 399.378906 1193.210938 399.140625 C 1199.179688 398.671875 1204.671875 402.429688 1205.46875 407.589844 C 1205.738281 409.410156 1205.199219 411.109375 1204.339844 412.628906 C 1211.171875 413.328125 1217.089844 417.378906 1219.339844 423.011719 C 1222.140625 421.371094 1225.421875 420.078125 1229.078125 419.730469 C 1240.53125 418.488281 1251.121094 425.421875 1252.679688 435.210938 C 1253.761719 441.78125 1250.371094 447.988281 1244.511719 451.691406 C 1248.21875 454.089844 1250.910156 457.609375 1251.550781 461.828125 C 1252.519531 467.808594 1249.128906 473.441406 1243.488281 476.488281 C 1250.53125 477.839844 1256.769531 481.179688 1261.179688 485.878906 C 1263.539062 486.699219 1265.800781 487.871094 1267.738281 489.449219 C 1270.429688 491.679688 1272.148438 494.320312 1273.171875 497.140625 C 1278.601562 494.03125 1285.589844 493.671875 1291.398438 496.019531 C 1292.210938 494.96875 1293.230469 494.089844 1294.410156 493.320312 C 1294.789062 492.800781 1295 492.328125 1295.480469 491.859375 C 1299.679688 488.160156 1306.449219 487.929688 1310.96875 491.089844 C 1311.511719 486.988281 1315.109375 483.410156 1320.269531 482.648438 C 1326.398438 481.769531 1332.160156 485.109375 1333.070312 490.210938 C 1333.390625 492.03125 1332.910156 493.730469 1332.050781 495.371094 C 1339.089844 495.609375 1345.28125 499.25 1347.75 504.699219 C 1350.550781 502.820312 1353.878906 501.359375 1357.648438 500.710938 C 1369.371094 498.78125 1380.390625 504.878906 1382.269531 514.550781 C 1383.238281 519.421875 1381.679688 524.230469 1378.460938 528.039062 C 1379.851562 528.859375 1381.089844 529.800781 1382.058594 530.96875 C 1383.621094 529.738281 1385.5 528.691406 1387.699219 528.28125 C 1393.941406 527.160156 1399.75 530.328125 1400.820312 535.371094 C 1401.148438 537.25 1400.660156 538.949219 1399.859375 540.589844 C 1407.011719 540.589844 1413.300781 543.988281 1415.878906 549.390625 C 1418.730469 547.339844 1422.058594 545.808594 1425.828125 545.050781 C 1437.710938 542.640625 1448.949219 548.390625 1451.050781 557.949219 C 1452.441406 564.460938 1449.160156 570.96875 1443.25 575.371094 C 1447.230469 577.300781 1450.128906 580.589844 1450.988281 584.691406 C 1452.011719 589.378906 1450.078125 594.128906 1446.371094 597.710938 C 1456.261719 596.769531 1465.78125 601.109375 1471.691406 609.261719 C 1475.300781 604.21875 1480.300781 600.289062 1486.429688 598.351562 C 1499.601562 594.128906 1513.261719 600.171875 1519.710938 612.191406 C 1522.191406 610.320312 1524.871094 608.679688 1527.890625 607.621094 C 1543.101562 602.519531 1559.230469 610.898438 1563.96875 626.738281 C 1565.039062 630.371094 1565.359375 634.128906 1565.101562 637.761719 C 1574.71875 642.339844 1582.570312 650.671875 1586.011719 661.980469 C 1588.859375 671.308594 1588.109375 680.980469 1584.78125 689.660156 C 1591.121094 688.371094 1597.300781 692.070312 1598.808594 698.578125 C 1599.828125 702.910156 1598.328125 707.308594 1595.421875 710.539062 C 1596.5 712.53125 1597.46875 714.640625 1598.160156 716.929688 C 1603.859375 734.761719 1595.050781 754.640625 1578.269531 762.910156 C 1578.589844 763.488281 1578.910156 764.140625 1579.128906 764.839844 C 1589.878906 765.71875 1597.300781 771.589844 1598.699219 779.679688 C 1604.238281 776.921875 1610.480469 775.28125 1616.71875 775.28125 C 1630.160156 775.339844 1639.089844 783.019531 1638.820312 793.289062 C 1641.828125 792.519531 1644.949219 791.988281 1648.058594 791.941406 C 1663.660156 791.761719 1673.339844 801.789062 1669.570312 814.628906 C 1668.660156 817.558594 1667.101562 820.378906 1665.109375 823.019531 C 1671.03125 828.648438 1673.5 836.738281 1670.761719 845.890625 C 1668.5 853.449219 1663.011719 860.371094 1655.921875 865.878906"/><path d="M 1200.300781 1087.210938 C 1202.988281 1082.320312 1205.621094 1077.261719 1208.421875 1072.53125 C 1211.269531 1067.851562 1213.898438 1063.179688 1216.96875 1058.5 C 1229.980469 1038.171875 1244.5 1018.808594 1259.769531 1000.421875 C 1272.410156 985.050781 1285.53125 970.421875 1298.648438 956.550781 C 1327.46875 926.109375 1356.238281 899.339844 1381.511719 877.128906 C 1406.78125 854.921875 1428.71875 837.390625 1444.148438 825.289062 C 1459.640625 813.191406 1468.730469 806.691406 1468.730469 806.691406 L 1464.851562 801.261719 C 1464.851562 801.261719 1455.550781 807.710938 1439.738281 819.480469 C 1423.929688 831.308594 1401.671875 848.628906 1375.648438 870.238281 C 1349.621094 891.921875 1319.941406 918.050781 1289.941406 948.050781 C 1272.78125 965.261719 1255.46875 983.761719 1238.960938 1003.488281 C 1226.589844 1018.28125 1214.761719 1033.710938 1203.789062 1049.898438 C 1200.511719 1054.519531 1197.5 1059.570312 1194.328125 1064.410156 C 1191.269531 1069.25 1188.578125 1074.089844 1185.671875 1078.929688 C 1185.511719 1079.199219 1185.351562 1079.46875 1185.191406 1079.738281 C 1184.921875 1071.128906 1184.871094 1061.03125 1185.351562 1049.789062 C 1185.730469 1040.648438 1186.640625 1030.859375 1188.089844 1020.589844 C 1188.308594 1019.300781 1188.519531 1017.960938 1188.738281 1016.609375 C 1189.441406 1012.789062 1190.191406 1008.921875 1191.101562 1005.160156 C 1191.589844 1002.628906 1192.390625 999.941406 1193.25 997.140625 L 1194.488281 993.011719 C 1194.710938 992.089844 1195.351562 990.421875 1195.78125 989.191406 C 1199.488281 978.320312 1204.011719 967.410156 1208.789062 956.011719 C 1211.160156 950.261719 1213.46875 944.289062 1215.460938 938.101562 C 1217.339844 931.921875 1219.011719 925.519531 1220.03125 919.121094 C 1222.179688 906.269531 1222.71875 893.578125 1222.769531 881.050781 C 1222.878906 874.710938 1222.609375 868.738281 1222.511719 862.71875 C 1222.558594 859.761719 1222.558594 856.859375 1222.609375 853.949219 L 1222.671875 849.648438 C 1222.71875 848.25 1222.878906 846.851562 1223.039062 845.460938 C 1223.308594 842.609375 1223.578125 839.808594 1223.851562 837.011719 C 1224.230469 834.269531 1224.769531 831.578125 1225.25 828.839844 C 1226 823.460938 1227.609375 818.300781 1228.800781 813.191406 C 1231.75 803.191406 1235.089844 793.828125 1239.011719 785.5 C 1242.671875 777.058594 1246.808594 769.691406 1250.519531 763.238281 C 1254.449219 756.839844 1258 751.359375 1261.171875 747 C 1264.230469 742.589844 1266.871094 739.308594 1268.699219 737.109375 C 1270.46875 734.898438 1271.488281 733.769531 1271.488281 733.769531 L 1266.921875 729.578125 C 1266.921875 729.578125 1265.851562 730.710938 1263.859375 732.96875 C 1261.921875 735.21875 1259.070312 738.558594 1255.738281 743.019531 C 1252.351562 747.378906 1248.53125 752.921875 1244.28125 759.371094 C 1240.25 765.980469 1235.730469 773.460938 1231.699219 782.058594 C 1227.398438 790.558594 1223.640625 800.230469 1220.191406 810.660156 C 1218.738281 815.929688 1216.910156 821.308594 1215.949219 827.011719 C 1215.359375 829.859375 1214.710938 832.710938 1214.230469 835.621094 C 1213.851562 838.519531 1213.46875 841.480469 1213.101562 844.488281 C 1212.878906 845.988281 1212.671875 847.5 1212.558594 849 L 1212.339844 853.570312 C 1212.238281 856.640625 1212.128906 859.710938 1211.96875 862.769531 C 1211.910156 868.738281 1212.019531 874.96875 1211.699219 880.890625 C 1211.269531 892.941406 1210.410156 905.199219 1208.039062 916.921875 C 1205.78125 928.691406 1201.589844 939.660156 1196.589844 950.738281 C 1191.53125 961.820312 1186.429688 973.109375 1182.230469 984.238281 C 1181.691406 985.738281 1181.210938 986.820312 1180.621094 988.648438 L 1179.269531 992.789062 C 1178.359375 995.480469 1177.449219 998.171875 1176.75 1001.179688 C 1175.078125 1006.988281 1174 1012.578125 1172.929688 1018.011719 C 1172.550781 1020.109375 1172.230469 1022.199219 1171.960938 1024.25 L 1171.910156 1024.25 C 1170.558594 1032.898438 1169.648438 1041.078125 1169.058594 1048.820312 C 1167.660156 1067.910156 1167.871094 1083.828125 1168.25 1094.960938 C 1168.46875 1099.898438 1168.679688 1103.828125 1168.898438 1106.789062 C 1168.730469 1106.949219 1168.628906 1107.160156 1168.519531 1107.320312 C 1156.800781 1125.769531 1144.378906 1143.351562 1131.628906 1159.75 C 1106.199219 1192.769531 1079.421875 1221.160156 1057.640625 1247.988281 C 1053.769531 1252.78125 1050.171875 1257.511719 1046.671875 1262.191406 L 1045.171875 1262.191406 C 1045.21875 1261.21875 1045.28125 1260.25 1045.28125 1259.28125 C 1045.441406 1251.808594 1045.441406 1243.898438 1045.328125 1235.78125 C 1045.28125 1227.609375 1044.898438 1219.648438 1044.789062 1211.101562 C 1044.148438 1194.808594 1044.851562 1177.441406 1046.078125 1159.480469 C 1047.371094 1141.46875 1049.738281 1122.859375 1052.429688 1103.929688 C 1055.121094 1084.949219 1058.289062 1065.699219 1061.410156 1046.289062 C 1061.460938 1046.019531 1061.511719 1045.761719 1061.511719 1045.480469 C 1064.53125 1026.289062 1067.378906 1006.929688 1069.261719 987.730469 C 1069.851562 982.898438 1070.171875 977.949219 1070.488281 973 C 1070.871094 968.050781 1071.089844 963.269531 1071.191406 958.539062 C 1071.300781 956.121094 1071.351562 953.75 1071.410156 951.378906 C 1071.570312 949.128906 1071.730469 946.921875 1071.890625 944.71875 C 1072 942.511719 1072.160156 940.308594 1072.320312 938.160156 C 1072.589844 935.949219 1072.96875 933.75 1073.289062 931.601562 C 1074.421875 922.828125 1076.679688 914.28125 1078.671875 905.890625 C 1081.140625 897.609375 1083.398438 889.390625 1086.25 881.589844 C 1091.570312 865.890625 1097.699219 851.320312 1103.511719 837.871094 C 1109.480469 824.589844 1115.230469 812.488281 1120.660156 801.898438 C 1125.988281 791.25 1130.929688 782.109375 1135.019531 774.640625 C 1143.25 759.640625 1148.300781 751.410156 1148.300781 751.410156 L 1142.171875 747.539062 C 1142.171875 747.539062 1136.691406 755.820312 1127.808594 770.5 C 1123.410156 777.921875 1118.078125 786.949219 1112.269531 797.488281 C 1106.359375 807.921875 1100.070312 819.96875 1093.511719 833.191406 C 1087.058594 846.640625 1080.171875 861.160156 1074.101562 877.128906 C 1070.871094 885.03125 1068.238281 893.46875 1065.28125 902.019531 C 1062.859375 910.789062 1060.121094 919.609375 1058.558594 929.070312 C 1058.070312 931.429688 1057.539062 933.75 1057.160156 936.171875 C 1056.890625 938.75 1056.621094 941.378906 1056.351562 943.960938 C 1056.078125 946.601562 1055.808594 949.230469 1055.550781 951.871094 L 1055.121094 957.730469 C 1054.789062 962.519531 1054.46875 967.199219 1053.929688 971.761719 C 1053.390625 976.390625 1052.910156 980.960938 1052.160156 985.738281 C 1049.789062 1003.171875 1046.511719 1020.859375 1043.019531 1038.601562 C 1043.019531 1038.820312 1042.960938 1039.03125 1042.910156 1039.25 C 1042.859375 1039.140625 1042.859375 1039.089844 1042.859375 1038.980469 C 1042.800781 1038.820312 1042.800781 1038.601562 1042.75 1038.441406 C 1041.128906 1029.089844 1038.179688 1019.570312 1034.679688 1010 C 1027.480469 990.578125 1017.308594 971.601562 1008.328125 952.351562 C 1003.820312 942.730469 999.460938 933.101562 995.699219 923.480469 C 993.707031 918.640625 992.097656 913.851562 990.375 909.121094 C 988.707031 904.339844 987.203125 899.28125 985.695312 894.710938 C 979.726562 874.96875 971.285156 857.449219 961.820312 843.789062 C 952.410156 830.078125 942.25 820.351562 933.914062 814.699219 C 929.71875 811.898438 926.0625 810.070312 922.730469 809.269531 C 921.871094 809.109375 921.007812 808.941406 920.09375 808.941406 C 919.71875 808.890625 919.128906 809 918.644531 809.109375 C 918.105469 809.210938 917.78125 809.160156 916.816406 809.699219 C 916.007812 810.128906 915.363281 810.71875 914.988281 811.199219 C 914.933594 811.261719 914.878906 811.359375 914.824219 811.421875 C 914.71875 811.578125 914.664062 811.628906 914.664062 811.628906 L 921.65625 816.640625 C 921.4375 816.898438 921.332031 817.171875 921.007812 817.328125 C 920.257812 817.660156 920.308594 817.601562 920.203125 817.660156 L 920.039062 817.660156 C 920.09375 817.660156 920.308594 817.710938 920.6875 817.820312 C 922.246094 818.191406 925.3125 819.640625 928.808594 822.121094 C 935.902344 827.121094 945.207031 836.308594 953.648438 849.269531 C 962.199219 862.230469 969.835938 878.960938 975.101562 897.78125 C 976.609375 902.769531 977.953125 907.511719 979.566406 912.511719 C 981.234375 917.511719 982.902344 922.671875 984.78125 927.621094 C 988.4375 937.671875 992.738281 947.621094 997.097656 957.511719 C 1005.808594 977.25 1015.429688 996.28125 1021.78125 1014.671875 C 1023.011719 1018.28125 1024.140625 1021.769531 1025.109375 1025.269531 C 1026.71875 1030.75 1027.960938 1036.179688 1028.710938 1041.449219 C 1028.710938 1041.449219 1023.929688 1119.371094 1017.210938 1139.53125 C 1012.179688 1154.609375 1009.410156 1238.871094 1008.328125 1280.390625 C 986.171875 1224.980469 927.269531 1158.089844 901.839844 1128.78125 C 873.847656 1096.519531 864.710938 1035.910156 864.710938 1035.910156 C 863.851562 1030.210938 862.9375 1024.351562 861.59375 1018.488281 C 860.085938 1012.148438 858.3125 1005.75 855.890625 999.671875 C 851.214844 987.359375 845.246094 976.121094 838.953125 965.210938 C 835.835938 959.671875 832.554688 954.671875 829.4375 949.511719 C 827.984375 946.980469 826.53125 944.449219 825.136719 941.96875 L 822.984375 938.261719 C 822.339844 937.03125 821.800781 935.679688 821.210938 934.449219 C 820.027344 931.871094 818.84375 929.339844 817.660156 926.808594 C 816.585938 924.28125 815.726562 921.648438 814.757812 919.121094 C 812.660156 914.070312 811.476562 908.851562 809.917969 903.910156 C 807.445312 893.800781 805.613281 884.058594 804.757812 874.921875 C 803.679688 865.839844 803.519531 857.449219 803.464844 849.96875 C 803.574219 842.5 803.894531 835.988281 804.378906 830.671875 C 804.863281 825.339844 805.453125 821.148438 805.886719 818.359375 C 806.316406 815.558594 806.636719 814.109375 806.636719 814.109375 L 799.378906 812.488281 C 799.378906 812.488281 799.003906 814.050781 798.410156 817.011719 C 797.871094 819.96875 797.066406 824.269531 796.367188 829.808594 C 795.667969 835.289062 795.074219 842.011719 794.699219 849.761719 C 794.484375 857.5 794.324219 866.269531 795.128906 875.78125 C 795.667969 885.351562 797.226562 895.628906 799.484375 906.429688 C 800.9375 911.761719 802.011719 917.351562 804.003906 922.78125 C 804.972656 925.519531 805.832031 928.371094 806.851562 931.171875 C 807.980469 933.910156 809.164062 936.648438 810.347656 939.449219 C 810.941406 940.851562 811.476562 942.238281 812.121094 943.640625 L 814.273438 947.730469 C 815.726562 950.421875 817.121094 953.160156 818.574219 955.898438 C 821.480469 961.121094 824.703125 966.488281 827.394531 971.761719 C 833.039062 982.300781 838.363281 993.378906 842.125 1004.570312 C 845.40625 1013.820312 847.234375 1023.171875 848.417969 1032.960938 C 848.6875 1035.050781 848.902344 1037.199219 849.117188 1039.359375 C 850.300781 1051.398438 851.535156 1063.820312 853.472656 1075.601562 L 853.851562 1077.800781 L 854.011719 1078.929688 L 854.277344 1080.28125 L 855.195312 1084.519531 C 855.621094 1086.839844 856.160156 1089.199219 856.859375 1091.621094 L 856.804688 1091.570312 C 856 1090.378906 855.140625 1089.199219 854.277344 1087.96875 C 851.320312 1083.5 848.417969 1078.988281 845.460938 1074.148438 L 836.535156 1059.738281 C 827.714844 1046.128906 818.035156 1033.070312 807.714844 1020.75 C 803.519531 1015.75 799.21875 1010.859375 794.859375 1006.070312 C 779.699219 989.671875 763.675781 974.78125 748.566406 960.421875 C 741.035156 953.210938 733.671875 946.058594 726.894531 938.859375 C 723.453125 935.421875 720.066406 931.808594 716.730469 928.101562 C 713.503906 924.5 710.0625 920.898438 706.621094 917.289062 C 692.75 902.988281 676.886719 892.671875 663.066406 883.53125 C 649.25 874.378906 637.742188 864.871094 628.601562 855.078125 C 619.460938 845.460938 612.414062 836.050781 606.820312 828.199219 C 604.078125 824.160156 601.714844 820.671875 599.5625 817.550781 C 597.574219 814.320312 595.90625 811.578125 594.453125 809.320312 C 591.714844 804.910156 590.261719 802.550781 590.261719 802.550781 L 585.476562 805.398438 C 585.476562 805.398438 586.871094 807.820312 589.402344 812.390625 C 590.691406 814.640625 592.25 817.441406 594.132812 820.769531 C 596.175781 824.058594 598.542969 827.820312 601.125 832.011719 C 603.703125 836.261719 606.984375 840.621094 610.371094 845.558594 C 612.144531 847.980469 614.136719 850.398438 616.125 852.929688 C 618.0625 855.511719 620.265625 858.039062 622.578125 860.671875 C 631.71875 871.109375 643.710938 881.75 657.476562 891.539062 C 671.292969 901.328125 685.707031 911.488281 698.234375 925.308594 C 701.300781 928.75 704.472656 932.300781 707.699219 936.109375 C 710.871094 939.820312 714.203125 943.589844 717.699219 947.410156 C 724.636719 954.988281 731.894531 962.410156 739.261719 969.828125 C 742.972656 973.539062 746.734375 977.300781 750.445312 981.070312 C 751.039062 981.609375 751.574219 982.140625 752.113281 982.730469 C 762.8125 993.488281 773.566406 1004.460938 783.785156 1016.070312 C 785.128906 1017.628906 786.527344 1019.238281 787.871094 1020.800781 C 800.507812 1035.699219 812.175781 1051.671875 822.5 1068.550781 L 830.890625 1082.859375 C 831.136719 1083.300781 831.417969 1083.75 831.671875 1084.191406 C 829.355469 1082.238281 827.121094 1080.339844 824.710938 1078.359375 C 815.425781 1070.730469 805.59375 1062.730469 795.125 1054.808594 C 784.761719 1046.78125 773.785156 1038.789062 762.480469 1030.890625 C 751.183594 1022.960938 739.421875 1015.351562 727.46875 1007.921875 C 721.367188 1004.328125 715.265625 1000.75 709.183594 997.179688 C 703.082031 993.941406 697 990.710938 690.96875 987.511719 C 685.023438 984.320312 679.125 981.140625 673.300781 978.011719 C 667.648438 974.71875 662.277344 971.148438 656.863281 967.808594 C 651.726562 964.128906 646.679688 960.46875 641.859375 956.761719 C 637.367188 952.710938 632.535156 949.140625 628.585938 944.949219 C 624.511719 940.871094 620.523438 936.921875 617.21875 932.648438 C 613.59375 928.609375 610.746094 924.261719 607.882812 920.160156 C 602.546875 911.738281 598.300781 903.589844 595.742188 895.921875 C 592.933594 888.351562 591.488281 881.421875 590.699219 875.691406 C 589.824219 869.960938 589.789062 865.371094 589.730469 862.320312 C 589.773438 859.109375 589.796875 857.390625 589.796875 857.390625 L 580.839844 857.089844 C 580.839844 857.089844 580.769531 858.851562 580.640625 862.140625 C 580.609375 865.578125 580.53125 870.558594 581.3125 876.871094 C 582.015625 883.171875 583.40625 890.808594 586.253906 899.171875 C 588.851562 907.628906 593.226562 916.640625 598.785156 925.921875 C 601.753906 930.441406 604.746094 935.230469 608.503906 939.671875 C 611.972656 944.371094 616.101562 948.710938 620.34375 953.171875 C 624.480469 957.769531 629.4375 961.671875 634.136719 966.101562 C 639.117188 970.160156 644.335938 974.160156 649.660156 978.179688 C 655.21875 981.820312 660.777344 985.71875 666.597656 989.308594 C 672.476562 992.671875 678.421875 996.078125 684.417969 999.511719 C 690.363281 1002.859375 696.359375 1006.25 702.378906 1009.640625 C 708.121094 1013.230469 713.886719 1016.820312 719.652344 1020.421875 C 731.074219 1027.941406 742.410156 1035.699219 753.269531 1043.761719 C 764.144531 1051.789062 774.707031 1059.898438 784.691406 1068.058594 C 794.765625 1076.101562 804.238281 1084.230469 813.175781 1091.96875 C 822.117188 1099.71875 830.394531 1107.238281 838.015625 1114.199219 C 853.199219 1128.199219 865.460938 1140.28125 873.9375 1148.789062 C 875.875 1150.761719 877.59375 1152.519531 879.132812 1154.089844 C 884.351562 1161.238281 889.558594 1168.328125 894.660156 1175.289062 C 894.769531 1175.339844 894.824219 1175.449219 894.824219 1175.558594 C 894.929688 1175.609375 894.984375 1175.71875 895.039062 1175.828125 C 895.734375 1176.898438 896.382812 1177.980469 897.027344 1179 C 899.984375 1183.730469 902.402344 1187.390625 904.125 1189.921875 C 905.898438 1192.5 906.8125 1193.839844 906.8125 1193.839844 L 925.363281 1217.289062 C 939.078125 1236.210938 951.714844 1254.058594 962.628906 1270.628906 L 962.949219 1271.109375 C 979.78125 1296.441406 989.460938 1325.851562 991.074219 1356.230469 C 995.699219 1446.140625 996.183594 1579.378906 966.609375 1658.210938 L 1090.710938 1658.210938 C 1090.710938 1658.210938 1056.570312 1479.261719 1059.738281 1318.859375 C 1060.121094 1299.230469 1066.511719 1280.089844 1078.179688 1264.28125 C 1078.238281 1264.179688 1078.289062 1264.121094 1078.351562 1264.011719 C 1085.199219 1254.75 1092.871094 1245.011719 1100.960938 1234.800781 C 1101.511719 1234.269531 1102.179688 1233.628906 1103.058594 1232.789062 C 1105.410156 1230.609375 1108.859375 1227.398438 1113.25 1223.308594 C 1122.109375 1215.199219 1134.921875 1203.710938 1150.738281 1190.441406 C 1158.679688 1183.839844 1167.300781 1176.699219 1176.589844 1169.378906 C 1185.878906 1162.070312 1195.71875 1154.390625 1206.160156 1146.828125 C 1216.511719 1139.140625 1227.441406 1131.519531 1238.671875 1124.011719 C 1249.890625 1116.46875 1261.578125 1109.238281 1273.339844 1102.261719 C 1279.269531 1098.941406 1285.191406 1095.609375 1291.089844 1092.300781 C 1297.261719 1089.179688 1303.410156 1086.089844 1309.511719 1083.011719 C 1315.660156 1079.859375 1321.75 1076.738281 1327.78125 1073.648438 C 1333.761719 1070.328125 1339.5 1066.699219 1345.21875 1063.320312 C 1350.71875 1059.550781 1356.121094 1055.800781 1361.289062 1051.980469 C 1366.191406 1047.769531 1371.320312 1044.101562 1375.671875 1039.710938 C 1380.109375 1035.441406 1384.441406 1031.300781 1388.121094 1026.769531 C 1392.078125 1022.511719 1395.289062 1017.859375 1398.46875 1013.480469 C 1404.449219 1004.46875 1409.238281 995.679688 1412.230469 987.339844 C 1415.460938 979.121094 1417.210938 971.550781 1418.199219 965.289062 C 1419.28125 959.03125 1419.429688 954.050781 1419.558594 950.609375 C 1419.578125 947.320312 1419.601562 945.570312 1419.601562 945.570312 L 1410.640625 945.449219 C 1410.640625 945.449219 1410.578125 947.160156 1410.46875 950.371094 C 1410.269531 953.421875 1410.019531 958 1408.878906 963.679688 C 1407.820312 969.371094 1406.058594 976.21875 1402.898438 983.660156 C 1399.988281 991.191406 1395.371094 999.140625 1389.648438 1007.300781 C 1386.601562 1011.261719 1383.550781 1015.480469 1379.738281 1019.339844 C 1376.238281 1023.460938 1372.070312 1027.21875 1367.808594 1031.101562 C 1363.679688 1035.109375 1358.679688 1038.449219 1354.011719 1042.289062 C 1349.019531 1045.769531 1343.808594 1049.191406 1338.5 1052.628906 C 1332.941406 1055.710938 1327.410156 1059.03125 1321.609375 1062.050781 C 1315.648438 1064.910156 1309.609375 1067.808594 1303.519531 1070.71875 C 1297.351562 1073.640625 1291.121094 1076.578125 1284.871094 1079.53125 C 1278.640625 1082.808594 1272.371094 1086.109375 1266.109375 1089.410156 C 1253.828125 1096.269531 1241.71875 1103.328125 1230.070312 1110.730469 C 1218.410156 1118.089844 1207.070312 1125.558594 1196.351562 1133.101562 C 1185.519531 1140.53125 1175.328125 1148.058594 1165.699219 1155.25 C 1161.859375 1158.121094 1158.210938 1160.921875 1154.589844 1163.710938 C 1164.839844 1148.78125 1174.800781 1133.089844 1184.171875 1116.789062 C 1189.761719 1107.160156 1195.238281 1096.949219 1200.300781 1087.210938"/></g></svg>